<svg xmlns="http://www.w3.org/2000/svg" xmlns:xlink="http://www.w3.org/1999/xlink" width="69" height="69" viewBox="0 0 69 69">
  <defs>
    <filter id="Rectangle_10" x="0" y="0" width="69" height="69" filterUnits="userSpaceOnUse">
      <feOffset dy="3" input="SourceAlpha"/>
      <feGaussianBlur stdDeviation="3" result="blur"/>
      <feFlood flood-opacity="0.161"/>
      <feComposite operator="in" in2="blur"/>
      <feComposite in="SourceGraphic"/>
    </filter>
    <filter id="Ellipse_9" x="30.726" y="31.038" width="20.94" height="20.94" filterUnits="userSpaceOnUse">
      <feOffset dy="3" input="SourceAlpha"/>
      <feGaussianBlur stdDeviation="3" result="blur-2"/>
      <feFlood flood-opacity="0.161"/>
      <feComposite operator="in" in2="blur-2"/>
      <feComposite in="SourceGraphic"/>
    </filter>
    <filter id="Ellipse_8" x="36.193" y="31.038" width="20.94" height="20.94" filterUnits="userSpaceOnUse">
      <feOffset dy="3" input="SourceAlpha"/>
      <feGaussianBlur stdDeviation="3" result="blur-3"/>
      <feFlood flood-opacity="0.161"/>
      <feComposite operator="in" in2="blur-3"/>
      <feComposite in="SourceGraphic"/>
    </filter>
    <filter id="Ellipse_7" x="41.633" y="31.038" width="20.94" height="20.94" filterUnits="userSpaceOnUse">
      <feOffset dy="3" input="SourceAlpha"/>
      <feGaussianBlur stdDeviation="3" result="blur-4"/>
      <feFlood flood-opacity="0.161"/>
      <feComposite operator="in" in2="blur-4"/>
      <feComposite in="SourceGraphic"/>
    </filter>
    <filter id="_-" x="28.319" y="16.269" width="14" height="29" filterUnits="userSpaceOnUse">
      <feOffset dy="1" input="SourceAlpha"/>
      <feGaussianBlur stdDeviation="1" result="blur-5"/>
      <feFlood flood-opacity="0.161"/>
      <feComposite operator="in" in2="blur-5"/>
      <feComposite in="SourceGraphic"/>
    </filter>
    <filter id="Ellipse_9-2" x="7.726" y="9.038" width="20.94" height="20.94" filterUnits="userSpaceOnUse">
      <feOffset dy="3" input="SourceAlpha"/>
      <feGaussianBlur stdDeviation="3" result="blur-6"/>
      <feFlood flood-opacity="0.161"/>
      <feComposite operator="in" in2="blur-6"/>
      <feComposite in="SourceGraphic"/>
    </filter>
    <filter id="Ellipse_8-2" x="13.193" y="9.038" width="20.94" height="20.94" filterUnits="userSpaceOnUse">
      <feOffset dy="3" input="SourceAlpha"/>
      <feGaussianBlur stdDeviation="3" result="blur-7"/>
      <feFlood flood-opacity="0.161"/>
      <feComposite operator="in" in2="blur-7"/>
      <feComposite in="SourceGraphic"/>
    </filter>
    <filter id="Ellipse_7-2" x="18.633" y="9.038" width="20.94" height="20.94" filterUnits="userSpaceOnUse">
      <feOffset dy="3" input="SourceAlpha"/>
      <feGaussianBlur stdDeviation="3" result="blur-8"/>
      <feFlood flood-opacity="0.161"/>
      <feComposite operator="in" in2="blur-8"/>
      <feComposite in="SourceGraphic"/>
    </filter>
  </defs>
  <g id="icon" transform="translate(-93 -36)">
    <g transform="matrix(1, 0, 0, 1, 93, 36)" filter="url(#Rectangle_10)">
      <rect id="Rectangle_10-2" data-name="Rectangle 10" width="51" height="51" rx="5" transform="translate(9 6)" fill="#2f3542"/>
    </g>
    <g id="Group_25" data-name="Group 25" transform="translate(27 16.038)">
      <text id="CH" transform="translate(87 67)" fill="#fff" font-size="5" font-family="Montserrat-Light, Montserrat" font-weight="300"><tspan x="0" y="0">plnt-tch.</tspan></text>
      <text id="T" transform="matrix(1, 0, 0, -1, 103.023, 39.962)" fill="#fff" font-size="22" font-family="Montserrat-Black, Montserrat" font-weight="800"><tspan x="0" y="0">T</tspan></text>
      <g id="Group_2" data-name="Group 2" transform="translate(105.726 57)">
        <g transform="matrix(1, 0, 0, 1, -39.73, -37.04)" filter="url(#Ellipse_9)">
          <ellipse id="Ellipse_9-3" data-name="Ellipse 9" cx="1.47" cy="1.47" rx="1.47" ry="1.47" transform="translate(39.73 37.04)" fill="#8b4513"/>
        </g>
        <g transform="matrix(1, 0, 0, 1, -39.73, -37.04)" filter="url(#Ellipse_8)">
          <ellipse id="Ellipse_8-3" data-name="Ellipse 8" cx="1.47" cy="1.47" rx="1.47" ry="1.47" transform="translate(45.19 37.04)" fill="#fff"/>
        </g>
        <g transform="matrix(1, 0, 0, 1, -39.73, -37.04)" filter="url(#Ellipse_7)">
          <ellipse id="Ellipse_7-3" data-name="Ellipse 7" cx="1.47" cy="1.47" rx="1.47" ry="1.47" transform="translate(50.63 37.04)" fill="#44bd32"/>
        </g>
      </g>
      <text id="PLNT" transform="translate(82 57.962)" fill="#44bd32" font-size="23" font-family="Montserrat-Black, Montserrat" font-weight="800"><tspan x="0" y="0">T</tspan></text>
      <g transform="matrix(1, 0, 0, 1, 66, 19.96)" filter="url(#_-)">
        <text id="_--2" data-name="-" transform="matrix(1, 0, 0, -1, 31.32, 23.27)" fill="#2f3542" font-size="19" font-family="Montserrat-Black, Montserrat" font-weight="800"><tspan x="0" y="0">-</tspan></text>
      </g>
      <g id="Group_2-2" data-name="Group 2" transform="translate(82.726 35)">
        <g transform="matrix(1, 0, 0, 1, -16.73, -15.04)" filter="url(#Ellipse_9-2)">
          <ellipse id="Ellipse_9-4" data-name="Ellipse 9" cx="1.47" cy="1.47" rx="1.47" ry="1.47" transform="translate(16.73 15.04)" fill="#8b4513"/>
        </g>
        <g transform="matrix(1, 0, 0, 1, -16.73, -15.04)" filter="url(#Ellipse_8-2)">
          <ellipse id="Ellipse_8-4" data-name="Ellipse 8" cx="1.47" cy="1.47" rx="1.47" ry="1.47" transform="translate(22.19 15.04)" fill="#fff"/>
        </g>
        <g transform="matrix(1, 0, 0, 1, -16.73, -15.04)" filter="url(#Ellipse_7-2)">
          <ellipse id="Ellipse_7-4" data-name="Ellipse 7" cx="1.47" cy="1.47" rx="1.47" ry="1.47" transform="translate(27.63 15.04)" fill="#44bd32"/>
        </g>
      </g>
    </g>
  </g>
</svg>
