<svg xmlns="http://www.w3.org/2000/svg" xmlns:xlink="http://www.w3.org/1999/xlink" width="312.082" height="70.933" viewBox="0 0 312.082 70.933">
  <defs>
    <filter id="Path_329" x="107.871" y="0" width="67.77" height="67.77" filterUnits="userSpaceOnUse">
      <feOffset input="SourceAlpha"/>
      <feGaussianBlur stdDeviation="3" result="blur"/>
      <feFlood flood-color="#4cd137" flood-opacity="0.188"/>
      <feComposite operator="in" in2="blur"/>
      <feComposite in="SourceGraphic"/>
    </filter>
    <filter id="Path_330" x="107.87" y="3.163" width="67.77" height="67.77" filterUnits="userSpaceOnUse">
      <feOffset input="SourceAlpha"/>
      <feGaussianBlur stdDeviation="3" result="blur-2"/>
      <feFlood flood-color="#4cd137" flood-opacity="0.322"/>
      <feComposite operator="in" in2="blur-2"/>
      <feComposite in="SourceGraphic"/>
    </filter>
    <filter id="Imbali" x="0" y="13.046" width="119" height="50" filterUnits="userSpaceOnUse">
      <feOffset dy="3" input="SourceAlpha"/>
      <feGaussianBlur stdDeviation="3" result="blur-3"/>
      <feFlood flood-color="#f5f6fa" flood-opacity="0.467"/>
      <feComposite operator="in" in2="blur-3"/>
      <feComposite in="SourceGraphic"/>
    </filter>
    <filter id="botanic" x="164.082" y="13.046" width="148" height="50" filterUnits="userSpaceOnUse">
      <feOffset dy="3" input="SourceAlpha"/>
      <feGaussianBlur stdDeviation="3" result="blur-4"/>
      <feFlood flood-color="#f5f6fa" flood-opacity="0.467"/>
      <feComposite operator="in" in2="blur-4"/>
      <feComposite in="SourceGraphic"/>
    </filter>
  </defs>
  <g id="logo" transform="translate(-336 -383)">
    <g id="Group_172" data-name="Group 172" transform="translate(452.87 392)">
      <g transform="matrix(1, 0, 0, 1, -116.87, -9)" filter="url(#Path_329)">
        <path id="Path_329-2" data-name="Path 329" d="M3.954,0A89.088,89.088,0,0,0,18.866,1.5,78.567,78.567,0,0,0,33.215,0,3.954,3.954,0,0,1,37.17,3.954V29.261a3.954,3.954,0,0,1-3.954,3.954S24.6,32.2,20.485,32,3.954,33.215,3.954,33.215A3.954,3.954,0,0,1,0,29.261V3.954A3.954,3.954,0,0,1,3.954,0Z" transform="translate(140.36 9) rotate(45)" fill="#44bd32"/>
      </g>
      <g id="Group_171" data-name="Group 171" transform="translate(0 3.163)">
        <g transform="matrix(1, 0, 0, 1, -116.87, -12.16)" filter="url(#Path_330)">
          <path id="Path_330-2" data-name="Path 330" d="M3.954,0A89.088,89.088,0,0,0,18.866,1.5,78.567,78.567,0,0,0,33.215,0,3.954,3.954,0,0,1,37.17,3.954V29.261a3.954,3.954,0,0,1-3.954,3.954S24.6,32.2,20.485,32,3.954,33.215,3.954,33.215A3.954,3.954,0,0,1,0,29.261V3.954A3.954,3.954,0,0,1,3.954,0Z" transform="translate(140.36 12.16) rotate(45)" fill="#4cd137"/>
        </g>
        <circle id="Ellipse_64" data-name="Ellipse 64" cx="9.106" cy="9.106" r="9.106" transform="translate(15.79 15.79)" fill="#fff"/>
        <g id="Orion_cherry" transform="translate(19.643 18.592)">
          <path id="layer2" d="M16.172,6.857A.172.172,0,0,1,16,6.687a7.819,7.819,0,0,1,2.472-5.646.172.172,0,0,1,.281.1,7.079,7.079,0,0,0,2.8,4.538.172.172,0,1,1-.2.28A7.448,7.448,0,0,1,18.468,1.5a7.716,7.716,0,0,0-2.124,5.177.172.172,0,0,1-.17.175Z" transform="translate(-13.76 -1)" fill="#a7c180"/>
          <path id="opacity" d="M16.172,6.857A.172.172,0,0,1,16,6.687a7.819,7.819,0,0,1,2.472-5.646.172.172,0,0,1,.281.1,7.079,7.079,0,0,0,2.8,4.538.172.172,0,1,1-.2.28A7.448,7.448,0,0,1,18.468,1.5a7.716,7.716,0,0,0-2.124,5.177.172.172,0,0,1-.17.175Z" transform="translate(-13.76 -1)" fill="#8b4513" opacity="0.37"/>
          <path id="layer2-2" data-name="layer2" d="M24.584,1.344H22.172a.172.172,0,1,1,0-.344h2.411a.172.172,0,0,1,0,.344Z" transform="translate(-18.727 -1)" fill="#a7c180"/>
          <circle id="layer1" cx="2.411" cy="2.411" r="2.411" transform="translate(0 5.684)" fill="#4cd137"/>
          <circle id="layer1-2" data-name="layer1" cx="2.411" cy="2.411" r="2.411" transform="translate(5.167 4.651)" fill="#44bd32"/>
          <path id="opacity-2" data-name="opacity" d="M3,31.445a2.411,2.411,0,0,0,2.411,2.411V29.033A2.411,2.411,0,0,0,3,31.445Zm5.167-1.033a2.411,2.411,0,0,0,2.411,2.411V28A2.411,2.411,0,0,0,8.167,30.411Z" transform="translate(-3 -23.349)" fill="#21205e" opacity="0.1"/>
        </g>
      </g>
    </g>
    <g transform="matrix(1, 0, 0, 1, 336, 383)" filter="url(#Imbali)">
      <text id="Imbali-2" data-name="Imbali" transform="translate(9 44.05)" fill="#fff" font-size="26" font-family="Montserrat-BlackItalic, Montserrat" font-weight="800" font-style="italic"><tspan x="0" y="0">Imbali</tspan></text>
    </g>
    <g transform="matrix(1, 0, 0, 1, 336, 383)" filter="url(#botanic)">
      <text id="botanic-2" data-name="botanic" transform="translate(173.08 44.05)" fill="#fff" font-size="26" font-family="Montserrat-BlackItalic, Montserrat" font-weight="800" font-style="italic"><tspan x="0" y="0">botanic</tspan></text>
    </g>
  </g>
</svg>
