<svg xmlns="http://www.w3.org/2000/svg" width="93.657" height="22.594" viewBox="0 0 93.657 22.594">
  <g id="sign-in" transform="translate(-1015.657 -711)">
    <g id="arrow-green" transform="translate(2 -3)">
      <circle id="layer2" cx="11.297" cy="11.297" r="11.297" transform="translate(1107.314 714) rotate(90)" fill="#44bd32"/>
      <g id="Group_189" data-name="Group 189" transform="translate(1088.328 721.217)">
        <path id="layer1" d="M.371,14.839A.371.371,0,0,1,0,14.468V.371a.371.371,0,1,1,.742,0v14.1A.371.371,0,0,1,.371,14.839Z" transform="translate(14.839 4.081) rotate(90)" fill="#fff"/>
        <path id="layer1-2" data-name="layer1" d="M8.532,5.557a.371.371,0,0,1-.283-.131L4.452.938.654,5.427a.371.371,0,0,1-.566-.479L4.168.125a.383.383,0,0,1,.566,0L8.815,4.948a.371.371,0,0,1-.283.609Z" transform="translate(14.831 0) rotate(90)" fill="#fff"/>
      </g>
    </g>
    <text id="Sign_in" data-name="Sign in" transform="translate(1015.657 728)" fill="#44bd32" font-size="17" font-family="Montserrat-SemiBold, Montserrat" font-weight="600"><tspan x="0" y="0">Sign in</tspan></text>
  </g>
</svg>
