<svg xmlns="http://www.w3.org/2000/svg" width="210.325" height="147.317" viewBox="0 0 210.325 147.317">
  <g id="add-plant-icon" transform="translate(-82 -98.244)">
    <circle id="Ellipse_33" data-name="Ellipse 33" cx="68.031" cy="68.031" r="68.031" transform="translate(92.848 105.865)" fill="#f2f2f2"/>
    <path id="Path_231" data-name="Path 231" d="M474.273,385.273c-15.034,23.056-10.915,52.38-10.915,52.38s28.495-8.057,43.529-31.113S517.8,354.16,517.8,354.16,489.308,362.217,474.273,385.273Z" transform="translate(-302.317 -200.87)" fill="#44bd32" opacity="0.5"/>
    <path id="Path_232" data-name="Path 232" d="M201.065,464.345s-.366-.058-1.04-.195c-.537-.109-1.277-.265-2.18-.479-8.075-1.9-29.544-8.34-43.581-25.261-17.568-21.189-16.828-50.791-16.828-50.791S164.3,391.983,182,411.011q1.151,1.226,2.239,2.542c15.286,18.436,16.711,43.242,16.824,49.374C201.076,463.847,201.065,464.345,201.065,464.345Z" transform="translate(-40.103 -227.83)" fill="#44bd32"/>
    <path id="Path_233" data-name="Path 233" d="M226.546,385.273c15.034,23.056,10.915,52.38,10.915,52.38s-28.495-8.057-43.529-31.113-10.915-52.38-10.915-52.38S211.512,362.217,226.546,385.273Z" transform="translate(-76.42 -200.87)" fill="none" stroke="#fff" stroke-miterlimit="10" stroke-width="2"/>
    <path id="Path_234" data-name="Path 234" d="M384.63,559.987c-.4.479-.748.888-1.036,1.223-.639.728-1,1.11-1,1.11s-.44-.553-1.18-1.589c-4.061-5.661-17.124-25.791-16.115-49.043q.082-1.828.269-3.617,1.151,1.226,2.239,2.542C383.092,529.049,384.517,553.855,384.63,559.987Z" transform="translate(-223.672 -324.89)" opacity="0.1"/>
    <path id="Path_235" data-name="Path 235" d="M418.225,325.275c-1.188,27.5-21.6,48.951-21.6,48.951s-18.486-23.133-17.3-50.632,21.6-48.951,21.6-48.951S419.414,297.776,418.225,325.275Z" transform="translate(-234.976 -136.795)" fill="#44bd32"/>
    <line id="Line_35" data-name="Line 35" y1="97.682" x2="4.488" transform="translate(161.648 138.969)" fill="none" stroke="#fff" stroke-miterlimit="10" stroke-width="2"/>
    <ellipse id="Ellipse_34" data-name="Ellipse 34" cx="105.162" cy="6.5" rx="105.162" ry="6.5" transform="translate(82 232.562)" fill="#8b4513"/>
    <line id="Line_36" data-name="Line 36" y1="26.253" transform="translate(99.455 210.42)" fill="#3f3d56" stroke="#44bd32" stroke-miterlimit="10" stroke-width="2" opacity="0.5"/>
    <circle id="Ellipse_35" data-name="Ellipse 35" cx="3.713" cy="3.713" r="3.713" transform="translate(95.743 206.708)" fill="#44bd32" opacity="0.5"/>
    <path id="Path_236" data-name="Path 236" d="M101.072,689.373s-.53-11.407-11.4-10.081" transform="translate(-1.617 -462.773)" fill="#44bd32" opacity="0.5"/>
    <line id="Line_37" data-name="Line 37" y1="73.521" transform="translate(189.871 120.293)" fill="#3f3d56" stroke="#44bd32" stroke-miterlimit="10" stroke-width="2"/>
    <path id="Path_257" data-name="Path 257" d="M5.106,0A5.106,5.106,0,1,1,0,5.106,5.106,5.106,0,0,1,5.106,0Z" transform="translate(184.765 115.187)" fill="#44bd32"/>
    <path id="Path_237" data-name="Path 237" d="M548.875,233.19s-.729-15.69-15.684-13.866" transform="translate(-359.004 -92.101)" fill="#44bd32"/>
    <path id="Path_238" data-name="Path 238" d="M793.892,353.323l-4.433,8.354s-32.052,6.138-27.96,15.685,8.7,23.528,11.082,23.187,15.515-7.843,16.026-10.059-11.764-12.616-11.764-12.616l20.288-3.921s2.9,13.639-.852,23.016-5.967,34.78-3.41,35.121,9.036,2.387,11.934.511,4.262-42.964,4.262-42.964,6.138-26.938,2.387-30.006S793.892,353.323,793.892,353.323Z" transform="translate(-542.682 -200.195)" fill="#2f3542"/>
    <path id="Path_239" data-name="Path 239" d="M928.911,733.212s-3.918-2.062-4.743-.412c0,0,.619,4.949-1.856,5.567s-3.505,4.949,0,5.361,5.773-.825,7.011-.825,0-4.33,0-4.33Z" transform="translate(-670.736 -505.46)" fill="#8b4513"/>
    <path id="Path_240" data-name="Path 240" d="M840.44,559.733s-4.264-1.189-4.723.6c0,0,1.648,4.707-.64,5.833s-2.383,5.577,1.131,5.241,5.47-2.024,6.679-2.285-.913-4.233-.913-4.233Z" transform="translate(-600.95 -366.207)" fill="#8b4513"/>
    <path id="Path_241" data-name="Path 241" d="M973.759,196.317s.171,6.308-1.023,6.82,6.649,3.58,6.649,3.58l1.364-2.387s-1.534-8.525-1.193-9.206S973.759,196.317,973.759,196.317Z" transform="translate(-713.087 -72.599)" fill="#9f616a"/>
    <circle id="Ellipse_37" data-name="Ellipse 37" cx="10.453" cy="10.453" r="10.453" transform="translate(253.064 104.246)" fill="#2f2e41"/>
    <circle id="Ellipse_38" data-name="Ellipse 38" cx="4.326" cy="4.326" r="4.326" transform="translate(259.912 100.587)" fill="#2f2e41"/>
    <path id="Path_242" data-name="Path 242" d="M963.441,75.045a4.326,4.326,0,0,1,3.875-4.3,4.376,4.376,0,0,0-.45-.023,4.326,4.326,0,1,0,0,8.651,4.377,4.377,0,0,0,.451-.023A4.326,4.326,0,0,1,963.441,75.045Z" transform="translate(-704.971 27.525)" fill="#2f2e41"/>
    <circle id="Ellipse_39" data-name="Ellipse 39" cx="7.161" cy="7.161" r="7.161" transform="translate(256.069 112.636)" fill="#9f616a"/>
    <path id="Path_243" data-name="Path 243" d="M930.589,227.944s-6.138,1.875-9.206,0-10.4,3.58-11.593,5.967,4.433,4.774,4.433,4.774-1.607,4.609-1.279,6.9a38.841,38.841,0,0,1-.256,7.246s15.062,9.923,18.413,5.456c.511-.682,4.774-16.708,4.774-16.708l5.967-5.967s-3.751-5.456-5.967-5.967A48.15,48.15,0,0,1,930.589,227.944Z" transform="translate(-662.33 -98.855)" fill="#ffa502"/>
    <path id="Union_13" data-name="Union 13" d="M-12879.677-2613.408c-2.259-1.613,8.008-7.046,9.111-7.622l14.5-18.717,5.8-10.4,2.218-.854,3.239,4.433-8.354,12.958-14.387,13.7-.138-.048c-.989.838-8.113,6.78-11.149,6.779A1.415,1.415,0,0,1-12879.677-2613.408Z" transform="translate(13097.555 2785.203)" fill="#9f616a"/>
    <path id="Union_9" data-name="Union 9" d="M-12879.927-2627.765c.7-1.477,4.519.8,5.664,1.531l.009,0c1.025-.168,8.415-7.2,8.415-7.2l-7.16-13.3,2.9-4.264,3.07,1.875s10.4,14.324,6.817,17.563c-3.537,3.2-12.575,7.9-12.781,8.005a1.348,1.348,0,0,1-.9.27C-12876.146-2623.288-12880.626-2626.3-12879.927-2627.765Z" transform="translate(13146.544 2785.885)" fill="#9f616a" opacity="0.5"/>
    <path id="Union_10" data-name="Union 10" d="M-12879.927-2627.765c.7-1.477,4.519.8,5.664,1.531l.009,0c1.025-.168,8.415-7.2,8.415-7.2l-7.16-13.3,2.9-4.264,3.07,1.875s10.4,14.324,6.817,17.563c-3.537,3.2-12.575,7.9-12.781,8.005a1.348,1.348,0,0,1-.9.27C-12876.146-2623.288-12880.626-2626.3-12879.927-2627.765Z" transform="translate(13146.544 2785.885)" fill="#9f616a" opacity="0.5"/>
    <path id="Union_11" data-name="Union 11" d="M-12879.927-2627.765c.7-1.477,4.519.8,5.664,1.531l.009,0c1.025-.168,8.415-7.2,8.415-7.2l-7.16-13.3,2.9-4.264,3.07,1.875s10.4,14.324,6.817,17.563c-3.537,3.2-12.575,7.9-12.781,8.005a1.348,1.348,0,0,1-.9.27C-12876.146-2623.288-12880.626-2626.3-12879.927-2627.765Z" transform="translate(13146.544 2785.885)" fill="#9f616a" opacity="0.5"/>
    <path id="Union_12" data-name="Union 12" d="M-12879.927-2627.765c.7-1.477,4.519.8,5.664,1.531l.009,0c1.025-.168,8.415-7.2,8.415-7.2l-7.16-13.3,2.9-4.264,3.07,1.875s10.4,14.324,6.817,17.563c-3.537,3.2-12.575,7.9-12.781,8.005a1.348,1.348,0,0,1-.9.27C-12876.146-2623.288-12880.626-2626.3-12879.927-2627.765Z" transform="translate(13146.544 2785.885)" fill="#9f616a" opacity="0.5"/>
    <path id="Path_249" data-name="Path 249" d="M1038.339,259.39l1.5-.263,1.236,1.3,4.474,6.417s1.542,2.247,3.144,7.942c.454,1.6-6.088,2.169-6.088,2.169l-7.161-13.3Z" transform="translate(-761.897 -124.505)" fill="#44bd32"/>
    <path id="Path_256" data-name="Path 256" d="M824.1,255.878l-2.216.852-5.8,10.4,5.275,2.452,5.977-9.271Z" transform="translate(-574.597 -121.675)" fill="#44bd32"/>
    <ellipse id="Ellipse_40" data-name="Ellipse 40" cx="7.209" cy="4.326" rx="7.209" ry="4.326" transform="translate(256.308 106.964)" fill="#2f2e41"/>
    <rect id="Rectangle_99" data-name="Rectangle 99" width="33.598" height="33.598" transform="translate(215 204)" fill="#44bd32"/>
    <g id="Group_141" data-name="Group 141">
      <line id="Line_41" data-name="Line 41" x2="15" transform="translate(224.5 220.5)" fill="none" stroke="#fff" stroke-linecap="round" stroke-width="1"/>
      <line id="Line_42" data-name="Line 42" x2="15" transform="translate(232 213) rotate(90)" fill="none" stroke="#fff" stroke-linecap="round" stroke-width="1"/>
    </g>
  </g>
</svg>
