<svg xmlns="http://www.w3.org/2000/svg" width="24.717" height="19.774" viewBox="0 0 24.717 19.774">
  <path id="species" d="M19.231,8.726,11.048.543A1.854,1.854,0,0,0,9.737,0H1.854A1.854,1.854,0,0,0,0,1.854V9.737a1.854,1.854,0,0,0,.543,1.311l8.183,8.183a1.854,1.854,0,0,0,2.622,0l7.883-7.883A1.854,1.854,0,0,0,19.231,8.726ZM4.326,6.179A1.854,1.854,0,1,1,6.179,4.326,1.854,1.854,0,0,1,4.326,6.179Zm19.849,5.168-7.883,7.883a1.854,1.854,0,0,1-2.622,0l-.014-.014,6.722-6.722a3.476,3.476,0,0,0,0-4.916L12.8,0H14.68a1.854,1.854,0,0,1,1.311.543l8.183,8.183a1.854,1.854,0,0,1,0,2.622Z" fill="#fff"/>
</svg>
