<svg xmlns="http://www.w3.org/2000/svg" width="28.544" height="22.201" viewBox="0 0 28.544 22.201">
  <path id="type" d="M28.159,39.924a15.848,15.848,0,0,0-10.6,4.113,12.734,12.734,0,0,0-3.291,4.7,12.734,12.734,0,0,0-3.291-4.7,15.848,15.848,0,0,0-10.6-4.113A.377.377,0,0,0,0,40.312a13.722,13.722,0,0,0,4.4,9.876A13.153,13.153,0,0,0,14.271,54.2a13.152,13.152,0,0,0,9.873-4.008,13.721,13.721,0,0,0,4.4-9.876A.377.377,0,0,0,28.159,39.924ZM14.27,45.4a13.634,13.634,0,0,1,2.185-2.5,14.831,14.831,0,0,1,2.986-2.239,16.346,16.346,0,0,0-4.793-8.534.6.6,0,0,0-.75,0A16.346,16.346,0,0,0,9.1,40.655a14.569,14.569,0,0,1,2.935,2.2A14.013,14.013,0,0,1,14.27,45.4Z" transform="translate(0 -31.995)" fill="#fff"/>
</svg>
