<svg xmlns="http://www.w3.org/2000/svg" xmlns:xlink="http://www.w3.org/1999/xlink" width="279" height="455.806" viewBox="0 0 279 455.806">
  <defs>
    <filter id="layer1" x="105" y="0" width="77.5" height="77.48" filterUnits="userSpaceOnUse">
      <feOffset dy="3" input="SourceAlpha"/>
      <feGaussianBlur stdDeviation="3" result="blur"/>
      <feFlood flood-color="#44bd32" flood-opacity="0.439"/>
      <feComposite operator="in" in2="blur"/>
      <feComposite in="SourceGraphic"/>
    </filter>
    <filter id="layer2" x="157" y="363.96" width="82" height="91.846" filterUnits="userSpaceOnUse">
      <feOffset dy="3" input="SourceAlpha"/>
      <feGaussianBlur stdDeviation="3" result="blur-2"/>
      <feFlood flood-color="#3742fa" flood-opacity="0.341"/>
      <feComposite operator="in" in2="blur-2"/>
      <feComposite in="SourceGraphic"/>
    </filter>
    <filter id="layer2-2" x="0" y="247.96" width="77.052" height="86.137" filterUnits="userSpaceOnUse">
      <feOffset dy="3" input="SourceAlpha"/>
      <feGaussianBlur stdDeviation="3" result="blur-3"/>
      <feFlood flood-color="#ff4757" flood-opacity="0.439"/>
      <feComposite operator="in" in2="blur-3"/>
      <feComposite in="SourceGraphic"/>
    </filter>
    <filter id="layer1-2" x="134.686" y="199.611" width="104.314" height="103.35" filterUnits="userSpaceOnUse">
      <feOffset dy="3" input="SourceAlpha"/>
      <feGaussianBlur stdDeviation="3" result="blur-4"/>
      <feFlood flood-color="#2f3542" flood-opacity="0.439"/>
      <feComposite operator="in" in2="blur-4"/>
      <feComposite in="SourceGraphic"/>
    </filter>
  </defs>
  <g id="under-construction" transform="translate(-44 -162.04)">
    <g transform="matrix(1, 0, 0, 1, 44, 162.04)" filter="url(#layer1)">
      <path id="layer1-3" data-name="layer1" d="M55.55,37.686a5.888,5.888,0,0,0-4.432,1.983c-1.394,1.4-5.485,1.983-5.485-1.983V17.867H29.777c-3.967,0-3.408-4.091-2.014-5.485a5.934,5.934,0,1,0-7.9,0c1.394,1.394,1.983,5.485-1.983,5.485H2V25.8c0,3.967,4.091,3.379,5.485,1.983A5.886,5.886,0,0,1,11.917,25.8a5.95,5.95,0,1,1-4.432,9.886C6.091,34.291,2,33.734,2,37.7V61.5H25.814c3.967,0,3.378-4.091,1.983-5.485a5.885,5.885,0,0,1-1.983-4.432A5.95,5.95,0,1,1,35.7,56.015C34.3,57.41,33.747,61.5,37.714,61.5h7.919V49.586c0-3.967,4.091-3.409,5.485-2.015a5.94,5.94,0,1,0,4.432-9.885Z" transform="translate(112 3.98)" fill="#44bd32"/>
    </g>
    <g id="Orion_css3" transform="translate(204 530)">
      <g transform="matrix(1, 0, 0, 1, -160, -367.96)" filter="url(#layer2)">
        <path id="layer2-3" data-name="layer2" d="M6,2H70L65.077,68.462,38,75.846,10.923,68.462Z" transform="translate(160 367.96)" fill="#3742fa"/>
      </g>
      <path id="opacity" d="M6,2l4.923,66.462L38,75.846V2Z" transform="translate(0)" fill="#000064" opacity="0.15"/>
      <path id="layer1-4" data-name="layer1" d="M35.462,56.846a1.231,1.231,0,0,1-.4-.065L20.6,51.858a1.231,1.231,0,0,1-.828-1.047l-.692-7.174a1.231,1.231,0,0,1,2.45-.236l.615,6.384,13.312,4.533,13.591-4.53.993-15.094H19.462a1.231,1.231,0,0,1-.566-2.324L47.646,17.462H18.231a1.231,1.231,0,0,1,0-2.462H52.692a1.231,1.231,0,0,1,.566,2.324L24.508,32.231H51.361a1.231,1.231,0,0,1,1.231,1.311l-1.13,17.231a1.231,1.231,0,0,1-.839,1.087L35.853,56.782A1.231,1.231,0,0,1,35.462,56.846Z" transform="translate(2.538 3)" fill="#fff"/>
    </g>
    <g id="Orion_html5" transform="translate(47 414)">
      <g transform="matrix(1, 0, 0, 1, -3, -251.96)" filter="url(#layer2-2)">
        <path id="layer2-4" data-name="layer2" d="M6,2H65.052L60.51,63.323,35.526,70.137,10.542,63.323Z" transform="translate(3 251.96)" fill="#ff4757"/>
      </g>
      <path id="opacity-2" data-name="opacity" d="M6,2l4.542,61.323,24.984,6.814V2Z" fill="#000064" opacity="0.15"/>
      <path id="layer1-5" data-name="layer1" d="M34.035,53.611a1.136,1.136,0,0,1-.366-.06L20.325,49.008a1.136,1.136,0,0,1-.764-.966l-.638-6.62a1.136,1.136,0,0,1,2.261-.218l.568,5.89,12.283,4.182,12.54-4.18.918-13.927H19.272a1.136,1.136,0,0,1-1.136-1.055L17,16.216A1.136,1.136,0,0,1,18.136,15h31.8a1.136,1.136,0,0,1,0,2.271H19.356L20.329,30.9H48.7a1.136,1.136,0,0,1,1.136,1.209L48.8,48.007a1.136,1.136,0,0,1-.774,1L34.4,53.552A1.136,1.136,0,0,1,34.035,53.611Z" transform="translate(1.491 1.763)" fill="#fff"/>
    </g>
    <text id="We_are_under_construction." data-name="We are under construction." transform="translate(188 270)" fill="#2f3542" font-size="18" font-family="Montserrat-Black, Montserrat" font-weight="800"><tspan x="-134.415" y="0">We are under construction.</tspan></text>
    <text id="Functionality_coming_soon." data-name="Functionality coming soon." transform="translate(91 298)" fill="#2f3542" font-size="15" font-family="Montserrat-Medium, Montserrat" font-weight="500"><tspan x="15.035" y="15">Functionality coming </tspan><tspan x="76.408" y="34">soon.</tspan></text>
    <g transform="matrix(1, 0, 0, 1, 44, 162.04)" filter="url(#layer1-2)">
      <path id="layer1-6" data-name="layer1" d="M108.293,80.6a33.55,33.55,0,0,0,.532-5.923,33.916,33.916,0,0,0-.634-6.413l8.78-5.067L105.59,43.48l-8.629,5.144a51.825,51.825,0,0,0-10.327-6.1V32H63.874V42.526a22.137,22.137,0,0,0-10.811,6.023l-8.91-5.067L32.7,63.2l8.535,4.945a33.428,33.428,0,0,0-.674,6.543,33.884,33.884,0,0,0,.552,6.034l-9.428,5.434,11.38,19.716,9.616-5.388a23.474,23.474,0,0,0,11.192,6.341V117.35h22.76V106.823a54.624,54.624,0,0,0,10.731-6.435l9.326,5.468L118,86.14ZM74.81,88.9A14.225,14.225,0,1,1,89.035,74.675,14.225,14.225,0,0,1,74.81,88.9Z" transform="translate(112 173.61)" fill="#2f3542"/>
    </g>
  </g>
</svg>
