<svg xmlns="http://www.w3.org/2000/svg" width="19.701" height="15.32" viewBox="0 0 19.701 15.32">
  <path id="home" d="M9.574,36.024,3.268,41.218v5.605a.547.547,0,0,0,.547.547l3.833-.01a.547.547,0,0,0,.544-.547V43.54a.547.547,0,0,1,.547-.547h2.189a.547.547,0,0,1,.547.547v3.271a.547.547,0,0,0,.547.549l3.831.011a.547.547,0,0,0,.547-.547V41.214l-6.3-5.19a.417.417,0,0,0-.523,0Zm9.96,3.53L16.675,37.2V32.46a.41.41,0,0,0-.41-.41H14.35a.41.41,0,0,0-.41.41v2.483l-3.062-2.519a1.642,1.642,0,0,0-2.086,0L.134,39.554a.41.41,0,0,0-.055.578l.872,1.06a.41.41,0,0,0,.578.056l8.045-6.626a.417.417,0,0,1,.523,0l8.045,6.626a.41.41,0,0,0,.578-.055l.872-1.06a.41.41,0,0,0-.058-.579Z" transform="translate(0.016 -32.05)" fill="#44bd32"/>
</svg>
