<svg xmlns="http://www.w3.org/2000/svg" width="375" height="60" viewBox="0 0 375 60">
  <g id="mobile-menu" transform="translate(0 -752)">
    <rect id="Rectangle_95" data-name="Rectangle 95" width="375" height="60" transform="translate(0 752)" fill="#fff"/>
    <text id="home" transform="translate(60 795)" fill="#2f3542" font-size="12" font-family="SegoeUI-Semibold, Segoe UI" font-weight="600"><tspan x="0" y="0">home</tspan></text>
    <path id="home-solid" d="M9.432,35.966,3.22,41.082V46.6a.539.539,0,0,0,.539.539l3.776-.01a.539.539,0,0,0,.536-.539V43.37a.539.539,0,0,1,.539-.539h2.156a.539.539,0,0,1,.539.539v3.223a.539.539,0,0,0,.539.541l3.775.01a.539.539,0,0,0,.539-.539V41.079L9.948,35.966a.411.411,0,0,0-.516,0Zm9.813,3.478-2.817-2.322V32.454a.4.4,0,0,0-.4-.4H14.137a.4.4,0,0,0-.4.4V34.9l-3.017-2.482a1.617,1.617,0,0,0-2.055,0L.131,39.443a.4.4,0,0,0-.054.569l.859,1.045a.4.4,0,0,0,.57.055l7.926-6.528a.411.411,0,0,1,.516,0l7.926,6.528a.4.4,0,0,0,.569-.054l.859-1.045a.4.4,0,0,0-.057-.57Z" transform="translate(66.016 734.806)" fill="#2f3542"/>
    <text id="All_plants" data-name="All plants" transform="translate(148 795)" fill="#2f3542" font-size="12" font-family="SegoeUI-Semilight, Segoe UI" font-weight="300" opacity="0.5"><tspan x="0" y="0">All plants</tspan></text>
    <text id="All_Categories" data-name="All Categories" transform="translate(232 795)" fill="#2f3542" font-size="12" font-family="SegoeUI-Semilight, Segoe UI" font-weight="300" opacity="0.5"><tspan x="0" y="0">All Categories</tspan></text>
    <path id="leaf-solid" d="M18.544.306a.527.527,0,0,0-.958-.041,5.806,5.806,0,0,1-5.075,2.962H9.8a6.5,6.5,0,0,0-6.5,6.5,6.694,6.694,0,0,0,.051.694,16.2,16.2,0,0,1,9.7-2.861.542.542,0,1,1,0,1.083C4.542,8.644.933,13.861.134,15.821a1.085,1.085,0,0,0,2.008.823,8.907,8.907,0,0,1,2.434-3.067A6.486,6.486,0,0,0,10.5,16.19c5.315-.386,9.056-5.153,9.056-10.989a12.311,12.311,0,0,0-1.009-4.9Z" transform="translate(167.945 764.756)" fill="#2f3542" opacity="0.5"/>
    <path id="th-large-solid" d="M10.382,32h6.734a.842.842,0,0,1,.842.842v5.612a.842.842,0,0,1-.842.842H10.382a.842.842,0,0,1-.842-.842V32.842A.842.842,0,0,1,10.382,32ZM7.576,32H.842A.842.842,0,0,0,0,32.842v5.612a.842.842,0,0,0,.842.842H7.576a.842.842,0,0,0,.842-.842V32.842A.842.842,0,0,0,7.576,32ZM0,41.26v5.612a.842.842,0,0,0,.842.842H7.576a.842.842,0,0,0,.842-.842V41.26a.842.842,0,0,0-.842-.842H.842A.842.842,0,0,0,0,41.26Zm10.382,6.454h6.734a.842.842,0,0,0,.842-.842V41.26a.842.842,0,0,0-.842-.842H10.382a.842.842,0,0,0-.842.842v5.612A.842.842,0,0,0,10.382,47.713Z" transform="translate(259 736)" fill="#2f3542" opacity="0.5"/>
  </g>
</svg>
