<svg xmlns="http://www.w3.org/2000/svg" width="22.864" height="26.131" viewBox="0 0 22.864 26.131">
  <path id="sliders" d="M25.314,49.965H8.166v-.817a.819.819,0,0,0-.817-.817H5.716a.819.819,0,0,0-.817.817v.817H.817A.819.819,0,0,0,0,50.781v1.633a.819.819,0,0,0,.817.817H4.9v.817a.819.819,0,0,0,.817.817H7.349a.819.819,0,0,0,.817-.817v-.817H25.314a.819.819,0,0,0,.817-.817V50.781A.819.819,0,0,0,25.314,49.965Zm0-8.166H21.231v-.817a.819.819,0,0,0-.817-.817H18.781a.819.819,0,0,0-.817.817V41.8H.817A.819.819,0,0,0,0,42.616v1.633a.819.819,0,0,0,.817.817H17.965v.817a.819.819,0,0,0,.817.817h1.633a.819.819,0,0,0,.817-.817v-.817h4.083a.819.819,0,0,0,.817-.817V42.616A.819.819,0,0,0,25.314,41.8Zm0-8.166H14.7v-.817A.819.819,0,0,0,13.882,32H12.249a.819.819,0,0,0-.817.817v.817H.817A.819.819,0,0,0,0,34.45v1.633a.819.819,0,0,0,.817.817H11.432v.817a.819.819,0,0,0,.817.817h1.633a.819.819,0,0,0,.817-.817V36.9H25.314a.819.819,0,0,0,.817-.817V34.45A.819.819,0,0,0,25.314,33.633Z" transform="translate(54.864) rotate(90)" fill="#44bd32"/>
</svg>
